<!-- Generated by IcoMoon.io -->
<svg version="1.1" xmlns="http://www.w3.org/2000/svg" width="64" height="64" viewBox="0 0 64 64">
<path d="M32 18.667c-7.36 0-13.333 5.973-13.333 13.333s5.973 13.333 13.333 13.333c7.36 0 13.333-5.973 13.333-13.333s-5.973-13.333-13.333-13.333zM5.333 34.667h5.333c1.467 0 2.667-1.2 2.667-2.667s-1.2-2.667-2.667-2.667h-5.333c-1.467 0-2.667 1.2-2.667 2.667s1.2 2.667 2.667 2.667zM53.333 34.667h5.333c1.467 0 2.667-1.2 2.667-2.667s-1.2-2.667-2.667-2.667h-5.333c-1.467 0-2.667 1.2-2.667 2.667s1.2 2.667 2.667 2.667zM29.333 5.333v5.333c0 1.467 1.2 2.667 2.667 2.667s2.667-1.2 2.667-2.667v-5.333c0-1.467-1.2-2.667-2.667-2.667s-2.667 1.2-2.667 2.667zM29.333 53.333v5.333c0 1.467 1.2 2.667 2.667 2.667s2.667-1.2 2.667-2.667v-5.333c0-1.467-1.2-2.667-2.667-2.667s-2.667 1.2-2.667 2.667zM15.973 12.213c-1.040-1.040-2.747-1.040-3.76 0-1.040 1.040-1.040 2.747 0 3.76l2.827 2.827c1.040 1.040 2.747 1.040 3.76 0s1.040-2.747 0-3.76l-2.827-2.827zM48.96 45.2c-1.040-1.040-2.747-1.040-3.76 0-1.040 1.040-1.040 2.747 0 3.76l2.827 2.827c1.040 1.040 2.747 1.040 3.76 0 1.040-1.040 1.040-2.747 0-3.76l-2.827-2.827zM51.787 15.973c1.040-1.040 1.040-2.747 0-3.76-1.040-1.040-2.747-1.040-3.76 0l-2.827 2.827c-1.040 1.040-1.040 2.747 0 3.76s2.747 1.040 3.76 0l2.827-2.827zM18.8 48.96c1.040-1.040 1.040-2.747 0-3.76-1.040-1.040-2.747-1.040-3.76 0l-2.827 2.827c-1.040 1.040-1.040 2.747 0 3.76s2.747 1.040 3.76 0l2.827-2.827z"></path>
</svg>
