<!-- Generated by IcoMoon.io -->
<svg version="1.1" xmlns="http://www.w3.org/2000/svg" width="64" height="64" viewBox="0 0 64 64">
<path d="M32.005 10.136c7.126 0 7.97 0.031 10.773 0.156 2.605 0.115 4.011 0.552 4.949 0.917 1.24 0.479 2.136 1.063 3.063 1.99 0.938 0.938 1.511 1.823 1.99 3.063 0.365 0.938 0.802 2.355 0.917 4.949 0.125 2.813 0.156 3.657 0.156 10.773 0 7.126-0.031 7.97-0.156 10.773-0.115 2.605-0.552 4.011-0.917 4.949-0.479 1.24-1.063 2.136-1.99 3.063-0.938 0.938-1.823 1.511-3.063 1.99-0.938 0.365-2.355 0.802-4.949 0.917-2.813 0.125-3.657 0.156-10.773 0.156-7.126 0-7.97-0.031-10.773-0.156-2.605-0.115-4.011-0.552-4.949-0.917-1.24-0.479-2.136-1.063-3.063-1.99-0.938-0.938-1.511-1.823-1.99-3.063-0.365-0.938-0.802-2.355-0.917-4.949-0.125-2.813-0.156-3.657-0.156-10.773 0-7.126 0.031-7.97 0.156-10.773 0.115-2.605 0.552-4.011 0.917-4.949 0.479-1.24 1.063-2.136 1.99-3.063 0.938-0.938 1.823-1.511 3.063-1.99 0.938-0.365 2.355-0.802 4.949-0.917 2.803-0.125 3.647-0.156 10.773-0.156zM32.005 5.333c-7.241 0-8.147 0.031-10.992 0.156-2.834 0.125-4.782 0.583-6.47 1.24-1.761 0.688-3.251 1.594-4.73 3.084-1.49 1.479-2.396 2.969-3.084 4.72-0.656 1.698-1.115 3.636-1.24 6.47-0.125 2.855-0.156 3.761-0.156 11.002s0.031 8.147 0.156 10.992c0.125 2.834 0.583 4.782 1.24 6.47 0.688 1.761 1.594 3.251 3.084 4.73 1.479 1.479 2.969 2.396 4.72 3.073 1.698 0.656 3.636 1.115 6.47 1.24 2.844 0.125 3.751 0.156 10.992 0.156s8.147-0.031 10.992-0.156c2.834-0.125 4.782-0.583 6.47-1.24 1.75-0.677 3.24-1.594 4.72-3.073s2.396-2.969 3.073-4.72c0.656-1.698 1.115-3.636 1.24-6.47 0.125-2.844 0.156-3.751 0.156-10.992s-0.031-8.147-0.156-10.992c-0.125-2.834-0.583-4.782-1.24-6.47-0.656-1.771-1.563-3.261-3.053-4.741-1.479-1.479-2.969-2.396-4.72-3.074-1.698-0.656-3.636-1.115-6.47-1.24-2.855-0.135-3.761-0.167-11.002-0.167z"></path>
<path d="M32.005 18.305c-7.564 0-13.701 6.137-13.701 13.701s6.137 13.701 13.701 13.701c7.564 0 13.701-6.137 13.701-13.701s-6.137-13.701-13.701-13.701zM32.005 40.893c-4.907 0-8.887-3.98-8.887-8.887s3.98-8.887 8.887-8.887c4.907 0 8.887 3.98 8.887 8.887s-3.98 8.887-8.887 8.887z"></path>
<path d="M49.447 17.764c0 1.771-1.438 3.199-3.199 3.199-1.771 0-3.199-1.438-3.199-3.199 0-1.771 1.438-3.199 3.199-3.199s3.199 1.438 3.199 3.199z"></path>
</svg>
