<!-- Generated by IcoMoon.io -->
<svg version="1.1" xmlns="http://www.w3.org/2000/svg" width="64" height="64" viewBox="0 0 64 64">
<path d="M54.719 5.333h-45.448c-2.177 0-3.938 1.719-3.938 3.844v45.635c0 2.125 1.76 3.854 3.938 3.854h45.448c2.177 0 3.948-1.729 3.948-3.844v-45.646c0-2.125-1.771-3.844-3.948-3.844zM21.156 50.781h-7.917v-25.458h7.917v25.458zM17.198 21.854c-2.542 0-4.594-2.052-4.594-4.583s2.052-4.583 4.594-4.583c2.531 0 4.583 2.052 4.583 4.583 0 2.521-2.052 4.583-4.583 4.583zM50.781 50.781h-7.906v-12.375c0-2.948-0.052-6.75-4.115-6.75-4.115 0-4.74 3.219-4.74 6.542v12.583h-7.896v-25.458h7.583v3.479h0.104c1.052-2 3.635-4.115 7.479-4.115 8.010 0 9.489 5.271 9.489 12.125v13.969z"></path>
</svg>
