<!-- Generated by IcoMoon.io -->
<svg version="1.1" xmlns="http://www.w3.org/2000/svg" width="64" height="64" viewBox="0 0 64 64">
<path d="M57.653 14.853c0.661 1.163 1.010 2.476 1.013 3.813v26.213c0 2.122-0.843 4.157-2.343 5.657s-3.535 2.343-5.657 2.343h-37.333c-2.122 0-4.157-0.843-5.657-2.343s-2.343-3.535-2.343-5.657v-26.213c0.004-1.337 0.353-2.651 1.013-3.813l25.653 20.32 25.653-20.32zM53.627 11.253c-0.939-0.386-1.945-0.585-2.96-0.587h-37.333c-1.015 0.001-2.021 0.201-2.96 0.587l21.627 17.12 21.627-17.12z"></path>
</svg>
