<!-- Generated by IcoMoon.io -->
<svg version="1.1" xmlns="http://www.w3.org/2000/svg" width="64" height="64" viewBox="0 0 64 64">
<path d="M58.135 21.427c0 0-0.521-3.677-2.125-5.292-2.031-2.125-4.302-2.135-5.344-2.261-7.458-0.542-18.656-0.542-18.656-0.542h-0.021c0 0-11.198 0-18.656 0.542-1.042 0.125-3.313 0.135-5.344 2.261-1.604 1.615-2.115 5.292-2.115 5.292s-0.542 4.323-0.542 8.635v4.042c0 4.313 0.531 8.635 0.531 8.635s0.521 3.677 2.115 5.292c2.031 2.125 4.698 2.052 5.885 2.281 4.271 0.406 18.135 0.531 18.135 0.531s11.208-0.021 18.667-0.552c1.042-0.125 3.313-0.135 5.344-2.261 1.604-1.615 2.125-5.292 2.125-5.292s0.531-4.313 0.531-8.635v-4.042c0-4.313-0.531-8.635-0.531-8.635zM26.49 39.010v-14.99l14.406 7.521-14.406 7.469z"></path>
</svg>
