<svg aria-hidden="true" style="position: absolute; width: 0; height: 0; overflow: hidden;" version="1.1" xmlns="http://www.w3.org/2000/svg" xmlns:xlink="http://www.w3.org/1999/xlink">
<defs>
<symbol id="neeeda-iconvideo" viewBox="0 0 64 64">
<path d="M50.74 32l-32 18.475v-36.95l32 18.475z"></path>
</symbol>
<symbol id="neeeda-iconmail" viewBox="0 0 64 64">
<path d="M57.653 14.853c0.661 1.163 1.010 2.476 1.013 3.813v26.213c0 2.122-0.843 4.157-2.343 5.657s-3.535 2.343-5.657 2.343h-37.333c-2.122 0-4.157-0.843-5.657-2.343s-2.343-3.535-2.343-5.657v-26.213c0.004-1.337 0.353-2.651 1.013-3.813l25.653 20.32 25.653-20.32zM53.627 11.253c-0.939-0.386-1.945-0.585-2.96-0.587h-37.333c-1.015 0.001-2.021 0.201-2.96 0.587l21.627 17.12 21.627-17.12z"></path>
</symbol>
<symbol id="neeeda-iconfacebook" viewBox="0 0 64 64">
<path d="M58.667 32.163c0-14.818-11.939-26.83-26.667-26.83s-26.667 12.012-26.667 26.83c0 13.391 9.752 24.491 22.5 26.504v-18.748h-6.771v-7.755h6.771v-5.911c0-6.724 3.981-10.438 10.072-10.438 2.917 0 5.969 0.524 5.969 0.524v6.603h-3.362c-3.313 0-4.346 2.068-4.346 4.192v5.031h7.396l-1.182 7.755h-6.214v18.748c12.748-2.013 22.5-13.112 22.5-26.504z"></path>
</symbol>
<symbol id="neeeda-iconinstagram" viewBox="0 0 64 64">
<path d="M32.005 10.136c7.126 0 7.97 0.031 10.773 0.156 2.605 0.115 4.011 0.552 4.949 0.917 1.24 0.479 2.136 1.063 3.063 1.99 0.938 0.938 1.511 1.823 1.99 3.063 0.365 0.938 0.802 2.355 0.917 4.949 0.125 2.813 0.156 3.657 0.156 10.773 0 7.126-0.031 7.97-0.156 10.773-0.115 2.605-0.552 4.011-0.917 4.949-0.479 1.24-1.063 2.136-1.99 3.063-0.938 0.938-1.823 1.511-3.063 1.99-0.938 0.365-2.355 0.802-4.949 0.917-2.813 0.125-3.657 0.156-10.773 0.156-7.126 0-7.97-0.031-10.773-0.156-2.605-0.115-4.011-0.552-4.949-0.917-1.24-0.479-2.136-1.063-3.063-1.99-0.938-0.938-1.511-1.823-1.99-3.063-0.365-0.938-0.802-2.355-0.917-4.949-0.125-2.813-0.156-3.657-0.156-10.773 0-7.126 0.031-7.97 0.156-10.773 0.115-2.605 0.552-4.011 0.917-4.949 0.479-1.24 1.063-2.136 1.99-3.063 0.938-0.938 1.823-1.511 3.063-1.99 0.938-0.365 2.355-0.802 4.949-0.917 2.803-0.125 3.647-0.156 10.773-0.156zM32.005 5.333c-7.241 0-8.147 0.031-10.992 0.156-2.834 0.125-4.782 0.583-6.47 1.24-1.761 0.688-3.251 1.594-4.73 3.084-1.49 1.479-2.396 2.969-3.084 4.72-0.656 1.698-1.115 3.636-1.24 6.47-0.125 2.855-0.156 3.761-0.156 11.002s0.031 8.147 0.156 10.992c0.125 2.834 0.583 4.782 1.24 6.47 0.688 1.761 1.594 3.251 3.084 4.73 1.479 1.479 2.969 2.396 4.72 3.073 1.698 0.656 3.636 1.115 6.47 1.24 2.844 0.125 3.751 0.156 10.992 0.156s8.147-0.031 10.992-0.156c2.834-0.125 4.782-0.583 6.47-1.24 1.75-0.677 3.24-1.594 4.72-3.073s2.396-2.969 3.073-4.72c0.656-1.698 1.115-3.636 1.24-6.47 0.125-2.844 0.156-3.751 0.156-10.992s-0.031-8.147-0.156-10.992c-0.125-2.834-0.583-4.782-1.24-6.47-0.656-1.771-1.563-3.261-3.053-4.741-1.479-1.479-2.969-2.396-4.72-3.074-1.698-0.656-3.636-1.115-6.47-1.24-2.855-0.135-3.761-0.167-11.002-0.167z"></path>
<path d="M32.005 18.305c-7.564 0-13.701 6.137-13.701 13.701s6.137 13.701 13.701 13.701c7.564 0 13.701-6.137 13.701-13.701s-6.137-13.701-13.701-13.701zM32.005 40.893c-4.907 0-8.887-3.98-8.887-8.887s3.98-8.887 8.887-8.887c4.907 0 8.887 3.98 8.887 8.887s-3.98 8.887-8.887 8.887z"></path>
<path d="M49.447 17.764c0 1.771-1.438 3.199-3.199 3.199-1.771 0-3.199-1.438-3.199-3.199 0-1.771 1.438-3.199 3.199-3.199s3.199 1.438 3.199 3.199z"></path>
</symbol>
<symbol id="neeeda-iconyoutube" viewBox="0 0 64 64">
<path d="M58.135 21.427c0 0-0.521-3.677-2.125-5.292-2.031-2.125-4.302-2.135-5.344-2.261-7.458-0.542-18.656-0.542-18.656-0.542h-0.021c0 0-11.198 0-18.656 0.542-1.042 0.125-3.313 0.135-5.344 2.261-1.604 1.615-2.115 5.292-2.115 5.292s-0.542 4.323-0.542 8.635v4.042c0 4.313 0.531 8.635 0.531 8.635s0.521 3.677 2.115 5.292c2.031 2.125 4.698 2.052 5.885 2.281 4.271 0.406 18.135 0.531 18.135 0.531s11.208-0.021 18.667-0.552c1.042-0.125 3.313-0.135 5.344-2.261 1.604-1.615 2.125-5.292 2.125-5.292s0.531-4.313 0.531-8.635v-4.042c0-4.313-0.531-8.635-0.531-8.635zM26.49 39.010v-14.99l14.406 7.521-14.406 7.469z"></path>
</symbol>
<symbol id="neeeda-iconlinked-in" viewBox="0 0 64 64">
<path d="M54.719 5.333h-45.448c-2.177 0-3.938 1.719-3.938 3.844v45.635c0 2.125 1.76 3.854 3.938 3.854h45.448c2.177 0 3.948-1.729 3.948-3.844v-45.646c0-2.125-1.771-3.844-3.948-3.844zM21.156 50.781h-7.917v-25.458h7.917v25.458zM17.198 21.854c-2.542 0-4.594-2.052-4.594-4.583s2.052-4.583 4.594-4.583c2.531 0 4.583 2.052 4.583 4.583 0 2.521-2.052 4.583-4.583 4.583zM50.781 50.781h-7.906v-12.375c0-2.948-0.052-6.75-4.115-6.75-4.115 0-4.74 3.219-4.74 6.542v12.583h-7.896v-25.458h7.583v3.479h0.104c1.052-2 3.635-4.115 7.479-4.115 8.010 0 9.489 5.271 9.489 12.125v13.969z"></path>
</symbol>
<symbol id="neeeda-iconcolor-scheme-light" viewBox="0 0 64 64">
<path d="M32 18.667c-7.36 0-13.333 5.973-13.333 13.333s5.973 13.333 13.333 13.333c7.36 0 13.333-5.973 13.333-13.333s-5.973-13.333-13.333-13.333zM5.333 34.667h5.333c1.467 0 2.667-1.2 2.667-2.667s-1.2-2.667-2.667-2.667h-5.333c-1.467 0-2.667 1.2-2.667 2.667s1.2 2.667 2.667 2.667zM53.333 34.667h5.333c1.467 0 2.667-1.2 2.667-2.667s-1.2-2.667-2.667-2.667h-5.333c-1.467 0-2.667 1.2-2.667 2.667s1.2 2.667 2.667 2.667zM29.333 5.333v5.333c0 1.467 1.2 2.667 2.667 2.667s2.667-1.2 2.667-2.667v-5.333c0-1.467-1.2-2.667-2.667-2.667s-2.667 1.2-2.667 2.667zM29.333 53.333v5.333c0 1.467 1.2 2.667 2.667 2.667s2.667-1.2 2.667-2.667v-5.333c0-1.467-1.2-2.667-2.667-2.667s-2.667 1.2-2.667 2.667zM15.973 12.213c-1.040-1.040-2.747-1.040-3.76 0-1.040 1.040-1.040 2.747 0 3.76l2.827 2.827c1.040 1.040 2.747 1.040 3.76 0s1.040-2.747 0-3.76l-2.827-2.827zM48.96 45.2c-1.040-1.040-2.747-1.040-3.76 0-1.040 1.040-1.040 2.747 0 3.76l2.827 2.827c1.040 1.040 2.747 1.040 3.76 0 1.040-1.040 1.040-2.747 0-3.76l-2.827-2.827zM51.787 15.973c1.040-1.040 1.040-2.747 0-3.76-1.040-1.040-2.747-1.040-3.76 0l-2.827 2.827c-1.040 1.040-1.040 2.747 0 3.76s2.747 1.040 3.76 0l2.827-2.827zM18.8 48.96c1.040-1.040 1.040-2.747 0-3.76-1.040-1.040-2.747-1.040-3.76 0l-2.827 2.827c-1.040 1.040-1.040 2.747 0 3.76s2.747 1.040 3.76 0l2.827-2.827z"></path>
</symbol>
<symbol id="neeeda-iconcolor-scheme-dark" viewBox="0 0 64 64">
<path d="M32 8c-13.253 0-24 10.747-24 24s10.747 24 24 24c13.253 0 24-10.747 24-24 0-1.227-0.107-2.453-0.267-3.627-2.613 3.653-6.88 6.027-11.733 6.027-7.947 0-14.4-6.453-14.4-14.4 0-4.827 2.373-9.12 6.027-11.733-1.173-0.16-2.4-0.267-3.627-0.267z"></path>
</symbol>
<symbol id="neeeda-iconcolor-scheme-system" viewBox="0 0 64 64">
<path d="M5.282 14.667c0-2.946 2.388-5.333 5.333-5.333h42.667c2.945 0 5.333 2.388 5.333 5.333v26.667c0 2.945-2.388 5.333-5.333 5.333h-42.667c-2.946 0-5.333-2.388-5.333-5.333v-26.667z"></path>
<path d="M42.616 54.667h-21.333l10.673-8 10.66 8z"></path>
</symbol>
<symbol id="neeeda-iconclose" viewBox="0 0 67 64">
<path d="M52 17.093l-3.76-3.76-14.907 14.907-14.907-14.907-3.76 3.76 14.907 14.907-14.907 14.907 3.76 3.76 14.907-14.907 14.907 14.907 3.76-3.76-14.907-14.907 14.907-14.907z"></path>
</symbol>
</defs>
</svg>
