<!-- Full-screen SVG background + interactive logo -->
<svg viewBox="0 0 361 65" xmlns="http://www.w3.org/2000/svg" aria-label="neeeda interactive logo">
  <!-- Background rect sized to the full viewBox. Fill synced by CSS to page background -->
  <rect id="svg-bg" x="0" y="0" width="361" height="65" fill="transparent" />
  <defs>
    <!-- Gradient from Variant 1 to Variant 2 -->
    <linearGradient id="gradA" gradientUnits="userSpaceOnUse" x1="0" y1="0" x2="0" y2="0">
      <stop offset="0%" stop-color="#f99b35" />
      <stop offset="100%" stop-color="#fc67b2" />
    </linearGradient>
    <!-- Gradient from Variant 2 to Variant 3 -->
    <linearGradient id="gradB" gradientUnits="userSpaceOnUse" x1="0" y1="0" x2="0" y2="0">
      <stop offset="0%" stop-color="#fc67b2" />
      <stop offset="100%" stop-color="#8b97ea" />
    </linearGradient>
  </defs>

  <!-- Trail with fixed stroke width (~47px) -->
  <path id="segA" d="M0 0 L0 0" stroke="url(#gradA)" stroke-width="47.23" vector-effect="non-scaling-stroke" stroke-linecap="round" fill="none" />
  <path id="segB" d="M0 0 L0 0" stroke="url(#gradB)" stroke-width="47.23" vector-effect="non-scaling-stroke" stroke-linecap="round" fill="none" />

  <g id="neeeda-logo">
    <!-- v1 -->
    <g id="v1">
      <rect width="108" height="64" transform="translate(0)" fill="transparent" />
      <g id="handle-v1">
        <rect x="60.5963" y="16.2864" width="47.23" height="47.23" rx="23.615" fill="transparent" />
      </g>
      <g id="label-v1">
        <path d="M72.0135 44.7401C72.5084 47.68 76.7388 54.045 84.4912 54.045C89.3038 54.045 92.8938 52.0074 94.9313 48.2525H106.351C103.751 56.4125 95.1739 64 84.4912 64C70.7037 64 60.5934 53.23 60.5934 40.0149C60.5934 26.7998 70.0536 15.7096 84.4136 15.7096C98.7736 15.7096 107.826 27.8574 107.826 39.2872C107.826 41.4024 107.496 43.2847 107.166 44.7498H72.0038L72.0135 44.7401ZM96.7263 36.0174C95.5038 28.7598 90.2837 25.6549 84.4912 25.6549C80.0862 25.6549 73.7212 27.6148 71.6836 36.0174H96.7263Z" />
        <path d="M43.866 63.9807C40.1498 63.9807 36.7345 61.9722 34.9007 58.5278L11.2163 14.0797V62.5253H0V10.2762C0 5.48307 3.12427 1.48555 7.77187 0.321222C12.4195 -0.843104 17.0574 1.22358 19.3181 5.45396L43.0024 49.9021V2.16473H54.2188V53.7152C54.2188 58.5084 51.0945 62.5059 46.4469 63.6702C45.5833 63.8837 44.7198 63.9904 43.8757 63.9904L43.866 63.9807Z" />
      </g>
    </g>

    <!-- v2 -->
    <g id="v2">
      <rect width="47.23" height="64" transform="translate(134, 0)" fill="transparent" />
      <g id="handle-v2">
        <rect x="133.798" y="16.2864" width="47.23" height="47.23" rx="23.615" fill="transparent" pointer-events="all" />
      </g>
      <g id="label-v2">
        <path d="M145.317 44.8567C145.812 47.7966 150.042 54.1616 157.795 54.1616C162.607 54.1616 166.197 52.124 168.235 48.3691H179.655C177.054 56.5291 168.477 64.1166 157.795 64.1166C144.007 64.1166 133.897 53.3466 133.897 40.1315C133.897 26.9164 143.357 15.8262 157.717 15.8262C172.077 15.8262 181.13 27.974 181.13 39.4038C181.13 41.519 180.8 43.4013 180.47 44.8664H145.307L145.317 44.8567ZM170.03 36.134C168.807 28.8763 163.587 25.7715 157.795 25.7715C153.389 25.7715 147.024 27.7314 144.987 36.134H170.03Z" />
      </g>
    </g>

    <!-- v3 -->
    <g id="v3">
      <rect width="154" height="64" fill="transparent" transform="translate(207, 00)"></rect>
      <g id="handle-v3">
        <rect x="207" y="16.2864" width="47.23" height="47.23" rx="23.615" fill="transparent" pointer-events="all" />
      </g>
      <g id="label-v3">
        <path fill-rule="evenodd" clip-rule="evenodd" d="M230.681 15.8262C245.04 15.8262 254.094 27.9737 254.094 39.4033C254.094 41.5184 253.763 43.4011 253.434 44.8662H218.282C218.785 47.8103 223.015 54.1611 230.759 54.1611C235.571 54.161 239.161 52.1239 241.198 48.3691H252.628C250.008 56.529 241.451 64.116 230.759 64.1162C216.971 64.1162 206.861 53.3468 206.86 40.1318C206.86 26.9168 216.321 15.8262 230.681 15.8262ZM230.769 25.7715C226.364 25.7715 219.999 27.7315 217.961 36.1338H243.003C241.78 28.8765 236.561 25.7716 230.769 25.7715Z" />
        <path fill-rule="evenodd" clip-rule="evenodd" d="M301.569 0.4375C304.567 0.437757 306.993 2.86357 306.993 5.86133V62.6416H297.038V57.0918H296.883C294.845 60.3518 290.11 64.1073 282.445 64.1074C270.938 64.1074 259.363 54.6375 259.362 40.0352C259.362 25.4326 271.598 15.8066 282.445 15.8066C289.053 15.8067 292.963 18.0101 296.146 21.3574V5.86133C296.146 2.86341 298.571 0.4375 301.569 0.4375ZM283.58 25.7715C275.498 25.7715 270.2 33.2815 270.2 39.6465C270.2 48.049 276.487 54.1719 283.58 54.1719V54.1621C291.74 54.1621 296.96 46.8169 296.96 39.9668C296.96 32.5442 291.255 25.7715 283.58 25.7715Z" />
        <path fill-rule="evenodd" clip-rule="evenodd" d="M335.829 15.8076C342.437 15.8076 346.347 18.01 349.529 21.3574V21.2402C349.53 18.2423 351.955 15.8164 354.953 15.8164C357.951 15.8164 360.377 18.2423 360.377 21.2402V62.6426H350.422V57.0918H350.267C348.229 60.3519 343.494 64.1074 335.829 64.1074C324.322 64.1074 312.746 54.6375 312.746 40.0352C312.746 25.4326 324.981 15.8076 335.829 15.8076ZM336.964 25.7715C328.882 25.7718 323.584 33.2817 323.584 39.6465C323.584 48.0489 329.871 54.1716 336.964 54.1719V54.1621C345.124 54.1621 350.345 46.8169 350.345 39.9668C350.345 32.5443 344.639 25.7715 336.964 25.7715Z" />
      </g>
    </g>
  </g>
</svg>
